<svg width="90" height="90" viewBox="0 0 90 90" fill="none" xmlns="http://www.w3.org/2000/svg">
<path d="M82.5 28.2568V63.7506C82.5002 66.6201 81.4038 69.3813 79.4352 71.4691C77.4666 73.5569 74.7746 74.8135 71.91 74.9818L71.25 75.0006H18.75C15.8805 75.0007 13.1193 73.9044 11.0315 71.9358C8.94372 69.9672 7.6871 67.2752 7.51875 64.4106L7.5 63.7506V28.2568L42.9187 51.8706L43.3537 52.1181C43.8664 52.3686 44.4294 52.4988 45 52.4988C45.5706 52.4988 46.1336 52.3686 46.6463 52.1181L47.0813 51.8706L82.5 28.2568Z" fill="white"/>
<path d="M71.25 14.999C75.3 14.999 78.8512 17.1365 80.8312 20.3503L45 44.2378L9.16873 20.3503C10.109 18.8232 11.4008 17.543 12.9364 16.6167C14.472 15.6904 16.2069 15.1447 17.9962 15.0253L18.75 14.999H71.25Z" fill="white"/>
</svg>
