<svg width="21" height="20" viewBox="0 0 21 20" fill="none" xmlns="http://www.w3.org/2000/svg">
<path d="M11.5281 0.0012304C12.2578 -0.00156983 12.9876 0.00576429 13.7171 0.0232305L13.9111 0.0302304C14.1351 0.0382304 14.3561 0.0482304 14.6231 0.0602304C15.6871 0.11023 16.4131 0.278231 17.0501 0.525231C17.7101 0.779231 18.2661 1.12323 18.8221 1.67923C19.3305 2.17884 19.7239 2.78318 19.9751 3.45023C20.2221 4.08723 20.3901 4.81423 20.4401 5.87823C20.4521 6.14423 20.4621 6.36623 20.4701 6.59023L20.4761 6.78423C20.4939 7.51342 20.5015 8.24283 20.4991 8.97223L20.5001 9.71823V11.0282C20.5026 11.758 20.4949 12.4877 20.4771 13.2172L20.4711 13.4112C20.4631 13.6352 20.4531 13.8562 20.4411 14.1232C20.3911 15.1872 20.2211 15.9132 19.9751 16.5502C19.7247 17.218 19.3312 17.8228 18.8221 18.3222C18.3221 18.8306 17.7174 19.224 17.0501 19.4752C16.4131 19.7222 15.6871 19.8902 14.6231 19.9402C14.3561 19.9522 14.1351 19.9622 13.9111 19.9702L13.7171 19.9762C12.9876 19.994 12.2578 20.0017 11.5281 19.9992L10.7821 20.0002H9.47309C8.74335 20.0027 8.01361 19.995 7.28409 19.9772L7.09009 19.9712C6.8527 19.9626 6.61536 19.9526 6.37809 19.9412C5.31409 19.8912 4.58809 19.7212 3.95009 19.4752C3.28277 19.2246 2.67833 18.8311 2.17909 18.3222C1.67013 17.8225 1.27631 17.2178 1.02509 16.5502C0.778089 15.9132 0.610089 15.1872 0.560089 14.1232C0.548952 13.8859 0.538951 13.6486 0.530089 13.4112L0.525089 13.2172C0.506652 12.4877 0.498318 11.758 0.500089 11.0282V8.97223C0.497298 8.24283 0.504632 7.51343 0.522089 6.78423L0.529089 6.59023C0.537089 6.36623 0.547089 6.14423 0.559089 5.87823C0.609089 4.81323 0.777089 4.08823 1.02409 3.45023C1.27546 2.78285 1.67005 2.17868 2.18009 1.68023C2.67898 1.17098 3.28305 0.776803 3.95009 0.525231C4.58809 0.278231 5.31309 0.11023 6.37809 0.0602304L7.09009 0.0302304L7.28409 0.0252306C8.01327 0.00680338 8.74267 -0.00153085 9.47209 0.000230468L11.5281 0.0012304ZM10.5001 5.00123C9.83759 4.99186 9.17985 5.11425 8.56507 5.3613C7.95029 5.60834 7.39074 5.97511 6.91893 6.44029C6.44713 6.90546 6.07249 7.45977 5.81678 8.07099C5.56106 8.68222 5.42938 9.33817 5.42938 10.0007C5.42938 10.6633 5.56106 11.3192 5.81678 11.9305C6.07249 12.5417 6.44713 13.096 6.91893 13.5612C7.39074 14.0264 7.95029 14.3931 8.56507 14.6402C9.17985 14.8872 9.83759 15.0096 10.5001 15.0002C11.8262 15.0002 13.0979 14.4734 14.0356 13.5358C14.9733 12.5981 15.5001 11.3263 15.5001 10.0002C15.5001 8.67415 14.9733 7.40238 14.0356 6.4647C13.0979 5.52701 11.8262 5.00123 10.5001 5.00123ZM10.5001 7.00123C10.8986 6.99389 11.2946 7.06603 11.6649 7.21344C12.0352 7.36085 12.3724 7.58057 12.6569 7.85978C12.9413 8.13898 13.1673 8.47206 13.3215 8.83957C13.4758 9.20708 13.5553 9.60165 13.5554 10.0002C13.5554 10.3988 13.4761 10.7934 13.3219 11.1609C13.1678 11.5285 12.9419 11.8617 12.6576 12.141C12.3732 12.4203 12.0361 12.6401 11.6658 12.7876C11.2955 12.9352 10.8996 13.0074 10.5011 13.0002C9.70544 13.0002 8.94238 12.6842 8.37977 12.1216C7.81716 11.5589 7.50109 10.7959 7.50109 10.0002C7.50109 9.20458 7.81716 8.44152 8.37977 7.87891C8.94238 7.3163 9.70544 7.00023 10.5011 7.00023L10.5001 7.00123ZM15.7501 3.50123C15.4275 3.51414 15.1224 3.65138 14.8987 3.8842C14.675 4.11702 14.5501 4.42736 14.5501 4.75023C14.5501 5.0731 14.675 5.38344 14.8987 5.61626C15.1224 5.84908 15.4275 5.98632 15.7501 5.99923C16.0816 5.99923 16.3996 5.86753 16.634 5.63311C16.8684 5.39869 17.0001 5.08075 17.0001 4.74923C17.0001 4.41771 16.8684 4.09977 16.634 3.86535C16.3996 3.63093 16.0816 3.49923 15.7501 3.49923V3.50123Z" fill="white"/>
</svg>
