<svg width="52" height="52" viewBox="0 0 52 52" fill="none" xmlns="http://www.w3.org/2000/svg">
<path d="M29.2143 16.2211C30.5622 19.1645 29.7746 23.4455 26.9748 25.2533C23.9016 27.2377 19.8016 26.3551 17.8173 23.282C17.6085 22.9577 17.4282 22.6158 17.2785 22.2603L0 29.8417V45.6676H45.6966V31.7941C44.9254 31.2314 44.1961 30.2838 43.9284 28.8867C43.0602 28.325 42.4239 27.4688 42.1367 26.4754C40.675 26.1581 39.4757 25.1123 38.9734 23.7146C37.3036 23.406 35.9597 22.1482 35.5505 20.5128C34.1855 20.1275 33.3103 19.3093 32.8538 17.995C31.6727 18.0514 30.3646 17.5309 29.2143 16.2211ZM42.7201 42.0686H2.85878V39.6337H42.7201V42.0686ZM42.7201 33.9548H2.85878V31.4188H42.7201V33.9548ZM26.2689 15.7781C25.7877 15.4674 25.3657 15.2533 24.8387 15.1263C24.6951 14.4964 24.5454 13.8746 24.4626 13.4653C23.9084 10.7246 22.6652 8.05563 20.1851 6.59506C19.035 5.91195 17.4872 6.62909 17.3067 7.96748C17.1549 9.09218 17.8942 9.66591 18.7752 10.1075C20.596 11.0202 21.6451 12.7611 22.3444 14.65C22.3928 14.7807 22.4395 14.9408 22.49 15.1129C21.2771 15.3896 20.1669 16.1207 19.4387 17.2485C17.9586 19.5405 18.6169 22.5986 20.909 24.0786C23.2012 25.5587 26.2592 24.9005 27.7393 22.6083C29.2193 20.3162 28.561 17.2581 26.2689 15.778V15.7781ZM25.0727 19.2165C24.39 19.2165 23.8366 18.663 23.8366 17.9805C23.8366 17.2977 24.39 16.7443 25.0726 16.7443C25.7553 16.7443 26.3088 17.2978 26.3088 17.9804C26.3088 18.6631 25.7553 19.2164 25.0727 19.2164V19.2165ZM49.5549 31.6437V45.6675H46.9239V31.2503C45.9935 30.6638 45.3749 29.6277 45.3749 28.4466L45.3751 28.4393C44.0847 28.0702 43.1166 26.9382 42.9897 25.5624C41.3747 25.5237 40.0196 24.3306 39.7728 22.7757C38.0066 22.7757 36.537 21.3938 36.4393 19.652C35.0407 19.5246 33.8939 18.5277 33.5427 17.2066C33.4065 17.2238 33.2693 17.2326 33.1319 17.2329C31.3024 17.2329 29.8193 15.7498 29.8193 13.9203C29.8193 12.0907 31.3024 10.6077 33.1319 10.6077C34.6665 10.6077 35.9569 11.6514 36.3332 13.0675C36.4693 13.0504 36.6064 13.0416 36.7437 13.0413C38.5099 13.0413 39.953 14.4238 40.0506 16.1656C41.5634 16.3035 42.8087 17.4573 43.0439 18.9399C44.7695 18.9399 46.213 20.2588 46.3684 21.9438C48.1604 21.9869 49.6002 23.452 49.6002 25.2544L49.6 25.2624C50.9855 25.6586 52 26.9338 52 28.4466C52 29.9759 50.9635 31.2624 49.5549 31.6436V31.6437Z" fill="white"/>
</svg>
