<svg width="25" height="25" viewBox="0 0 25 25" fill="none" xmlns="http://www.w3.org/2000/svg">
<path d="M7.5 18.5C6.4 18.5 5.51 19.4 5.51 20.5C5.51 21.6 6.4 22.5 7.5 22.5C8.6 22.5 9.5 21.6 9.5 20.5C9.5 19.4 8.6 18.5 7.5 18.5ZM1.5 2.5V4.5H3.5L7.1 12.09L5.75 14.54C5.59 14.82 5.5 15.15 5.5 15.5C5.5 16.6 6.4 17.5 7.5 17.5H19.5V15.5H7.92C7.78 15.5 7.67 15.39 7.67 15.25L7.7 15.13L8.6 13.5H16.05C16.8 13.5 17.46 13.09 17.8 12.47L21.38 5.98C21.4625 5.82739 21.504 5.65598 21.5005 5.48253C21.4969 5.30908 21.4485 5.13951 21.3598 4.99039C21.2711 4.84127 21.1453 4.7177 20.9946 4.63175C20.8439 4.54579 20.6735 4.5004 20.5 4.5H5.71L4.77 2.5H1.5ZM17.5 18.5C16.4 18.5 15.51 19.4 15.51 20.5C15.51 21.6 16.4 22.5 17.5 22.5C18.6 22.5 19.5 21.6 19.5 20.5C19.5 19.4 18.6 18.5 17.5 18.5Z" fill="#FBC115"/>
</svg>
