<svg width="21" height="20" viewBox="0 0 21 20" fill="none" xmlns="http://www.w3.org/2000/svg">
<path d="M13.5735 0.000343323H7.43749C1.83349 0.000343323 0.500488 1.33334 0.500488 6.92734V13.0633C0.500488 18.6663 1.82349 20.0003 7.42749 20.0003H13.5635C19.1665 20.0003 20.5005 18.6773 20.5005 13.0733V6.93734C20.5005 1.33334 19.1775 0.000343323 13.5735 0.000343323ZM16.6465 14.2703H15.1875C14.6355 14.2703 14.4695 13.8233 13.4795 12.8333C12.6155 12.0003 12.2505 11.8963 12.0315 11.8963C11.7295 11.8963 11.6465 11.9793 11.6465 12.3963V13.7083C11.6465 14.0633 11.5315 14.2713 10.6045 14.2713C9.70483 14.2109 8.83241 13.9376 8.05909 13.4739C7.28576 13.0102 6.63366 12.3694 6.15649 11.6043C5.02366 10.1943 4.23543 8.53948 3.85449 6.77134C3.85449 6.55234 3.93749 6.35434 4.35449 6.35434H5.81249C6.18749 6.35434 6.32249 6.52134 6.46949 6.90634C7.17749 8.99034 8.38549 10.8023 8.87549 10.8023C9.06349 10.8023 9.14549 10.7193 9.14549 10.2503V8.10434C9.08349 7.12534 8.56349 7.04234 8.56349 6.68834C8.57017 6.59497 8.61296 6.50788 8.68278 6.44552C8.7526 6.38317 8.84396 6.35046 8.93749 6.35434H11.2295C11.5425 6.35434 11.6465 6.51034 11.6465 6.88534V9.78134C11.6465 10.0943 11.7815 10.1983 11.8755 10.1983C12.0635 10.1983 12.2085 10.0943 12.5525 9.75034C13.2914 8.84929 13.895 7.84542 14.3445 6.77034C14.3904 6.64121 14.4774 6.53065 14.592 6.45554C14.7067 6.38042 14.8427 6.34489 14.9795 6.35434H16.4385C16.8755 6.35434 16.9685 6.57334 16.8755 6.88534C16.345 8.07377 15.6886 9.20189 14.9175 10.2503C14.7605 10.4903 14.6975 10.6153 14.9175 10.8963C15.0625 11.1153 15.5735 11.5423 15.9175 11.9483C16.4174 12.447 16.8325 13.0239 17.1465 13.6563C17.2715 14.0623 17.0625 14.2703 16.6465 14.2703Z" fill="white"/>
</svg>
