<svg width="46" height="65" viewBox="0 0 46 65" fill="none" xmlns="http://www.w3.org/2000/svg">
<path d="M23 30.875C20.8214 30.875 18.7321 30.019 17.1916 28.4952C15.6511 26.9715 14.7857 24.9049 14.7857 22.75C14.7857 20.5951 15.6511 18.5285 17.1916 17.0048C18.7321 15.481 20.8214 14.625 23 14.625C25.1786 14.625 27.2679 15.481 28.8084 17.0048C30.3489 18.5285 31.2143 20.5951 31.2143 22.75C31.2143 23.817 31.0018 24.8735 30.589 25.8593C30.1762 26.8451 29.5711 27.7408 28.8084 28.4952C28.0456 29.2497 27.1401 29.8482 26.1435 30.2565C25.1469 30.6648 24.0787 30.875 23 30.875ZM23 0C16.9 0 11.0499 2.39687 6.73654 6.66332C2.42321 10.9298 0 16.7163 0 22.75C0 39.8125 23 65 23 65C23 65 46 39.8125 46 22.75C46 16.7163 43.5768 10.9298 39.2635 6.66332C34.9501 2.39687 29.1 0 23 0Z" fill="white"/>
</svg>
