<svg width="70" height="70" viewBox="0 0 70 70" fill="none" xmlns="http://www.w3.org/2000/svg">
<path d="M14.0778 30.2944C19.6778 41.3 28.7 50.2833 39.7056 55.9222L48.2611 47.3667C49.3111 46.3167 50.8667 45.9667 52.2278 46.4333C56.5833 47.8722 61.2889 48.65 66.1111 48.65C68.25 48.65 70 50.4 70 52.5389V66.1111C70 68.25 68.25 70 66.1111 70C29.5944 70 0 40.4056 0 3.88889C0 1.75 1.75 0 3.88889 0H17.5C19.6389 0 21.3889 1.75 21.3889 3.88889C21.3889 8.75 22.1667 13.4167 23.6056 17.7722C24.0333 19.1333 23.7222 20.65 22.6333 21.7389L14.0778 30.2944Z" fill="white"/>
</svg>
