<svg width="16" height="16" viewBox="0 0 16 16" fill="none" xmlns="http://www.w3.org/2000/svg">
<g clip-path="url(#clip0_6_10)">
<path d="M14.6667 5.02333V11.3333C14.6667 11.8435 14.4718 12.3343 14.1218 12.7055C13.7718 13.0767 13.2933 13.3001 12.784 13.33L12.6667 13.3333H3.33333C2.82319 13.3334 2.33232 13.1384 1.96116 12.7885C1.58999 12.4385 1.36659 11.9599 1.33667 11.4507L1.33333 11.3333V5.02333L7.63 9.22133L7.70733 9.26533C7.79847 9.30986 7.89857 9.33301 8 9.33301C8.10143 9.33301 8.20153 9.30986 8.29267 9.26533L8.37 9.22133L14.6667 5.02333Z" fill="white"/>
<path d="M12.6667 2.66666C13.3867 2.66666 14.018 3.04666 14.37 3.618L8 7.86466L1.63 3.618C1.79715 3.34651 2.02681 3.11893 2.29981 2.95425C2.5728 2.78957 2.88122 2.69257 3.19933 2.67133L3.33333 2.66666H12.6667Z" fill="white"/>
</g>
<defs>
<clipPath id="clip0_6_10">
<rect width="16" height="16" fill="white"/>
</clipPath>
</defs>
</svg>
