<svg width="100" height="20" viewBox="0 0 100 20" fill="none" xmlns="http://www.w3.org/2000/svg">
<path d="M9.04894 2.92705C9.3483 2.00574 10.6517 2.00574 10.9511 2.92705L12.0206 6.21885C12.1545 6.63087 12.5385 6.90983 12.9717 6.90983H16.4329C17.4016 6.90983 17.8044 8.14945 17.0207 8.71885L14.2205 10.7533C13.87 11.0079 13.7234 11.4593 13.8572 11.8713L14.9268 15.1631C15.2261 16.0844 14.1717 16.8506 13.388 16.2812L10.5878 14.2467C10.2373 13.9921 9.7627 13.9921 9.41221 14.2467L6.61204 16.2812C5.82833 16.8506 4.77385 16.0844 5.0732 15.1631L6.14277 11.8713C6.27665 11.4593 6.12999 11.0079 5.7795 10.7533L2.97933 8.71885C2.19562 8.14945 2.59839 6.90983 3.56712 6.90983H7.02832C7.46154 6.90983 7.8455 6.63087 7.97937 6.21885L9.04894 2.92705Z" fill="#FFC531"/>
<path d="M29.0489 2.92705C29.3483 2.00574 30.6517 2.00574 30.9511 2.92705L32.0206 6.21885C32.1545 6.63087 32.5385 6.90983 32.9717 6.90983H36.4329C37.4016 6.90983 37.8044 8.14945 37.0207 8.71885L34.2205 10.7533C33.87 11.0079 33.7234 11.4593 33.8572 11.8713L34.9268 15.1631C35.2261 16.0844 34.1717 16.8506 33.388 16.2812L30.5878 14.2467C30.2373 13.9921 29.7627 13.9921 29.4122 14.2467L26.612 16.2812C25.8283 16.8506 24.7739 16.0844 25.0732 15.1631L26.1428 11.8713C26.2766 11.4593 26.13 11.0079 25.7795 10.7533L22.9793 8.71885C22.1956 8.14945 22.5984 6.90983 23.5671 6.90983H27.0283C27.4615 6.90983 27.8455 6.63087 27.9794 6.21885L29.0489 2.92705Z" fill="#FFC531"/>
<path d="M49.0489 2.92705C49.3483 2.00574 50.6517 2.00574 50.9511 2.92705L52.0206 6.21885C52.1545 6.63087 52.5385 6.90983 52.9717 6.90983H56.4329C57.4016 6.90983 57.8044 8.14945 57.0207 8.71885L54.2205 10.7533C53.87 11.0079 53.7234 11.4593 53.8572 11.8713L54.9268 15.1631C55.2261 16.0844 54.1717 16.8506 53.388 16.2812L50.5878 14.2467C50.2373 13.9921 49.7627 13.9921 49.4122 14.2467L46.612 16.2812C45.8283 16.8506 44.7739 16.0844 45.0732 15.1631L46.1428 11.8713C46.2766 11.4593 46.13 11.0079 45.7795 10.7533L42.9793 8.71885C42.1956 8.14945 42.5984 6.90983 43.5671 6.90983H47.0283C47.4615 6.90983 47.8455 6.63087 47.9794 6.21885L49.0489 2.92705Z" fill="#FFC531"/>
<path d="M69.0489 2.92705C69.3483 2.00574 70.6517 2.00574 70.9511 2.92705L72.0206 6.21885C72.1545 6.63087 72.5385 6.90983 72.9717 6.90983H76.4329C77.4016 6.90983 77.8044 8.14945 77.0207 8.71885L74.2205 10.7533C73.87 11.0079 73.7234 11.4593 73.8572 11.8713L74.9268 15.1631C75.2261 16.0844 74.1717 16.8506 73.388 16.2812L70.5878 14.2467C70.2373 13.9921 69.7627 13.9921 69.4122 14.2467L66.612 16.2812C65.8283 16.8506 64.7739 16.0844 65.0732 15.1631L66.1428 11.8713C66.2766 11.4593 66.13 11.0079 65.7795 10.7533L62.9793 8.71885C62.1956 8.14945 62.5984 6.90983 63.5671 6.90983H67.0283C67.4615 6.90983 67.8455 6.63087 67.9794 6.21885L69.0489 2.92705Z" fill="#FFC531"/>
<path d="M89.5245 3.08156C89.6741 2.6209 90.3259 2.6209 90.4755 3.08156L91.5451 6.37336C91.7459 6.99139 92.3218 7.40983 92.9717 7.40983H96.4329C96.9172 7.40983 97.1186 8.02964 96.7268 8.31434L93.9266 10.3488C93.4009 10.7307 93.1809 11.4078 93.3817 12.0258L94.4513 15.3176C94.6009 15.7783 94.0737 16.1613 93.6818 15.8766L90.8817 13.8422C90.3559 13.4602 89.6441 13.4602 89.1183 13.8422L86.3182 15.8766C85.9263 16.1613 85.3991 15.7783 85.5487 15.3176L86.6183 12.0258C86.8191 11.4078 86.5991 10.7307 86.0734 10.3488L83.2732 8.31434C82.8814 8.02964 83.0828 7.40983 83.5671 7.40983H87.0283C87.6782 7.40983 88.2541 6.99139 88.4549 6.37336L89.5245 3.08156Z" stroke="#FFC531"/>
</svg>
