<svg width="21" height="20" viewBox="0 0 21 20" fill="none" xmlns="http://www.w3.org/2000/svg">
<path d="M10.4995 0.000343323C4.97951 0.000343323 0.499512 4.48034 0.499512 10.0003C0.499512 15.5203 4.97951 20.0003 10.4995 20.0003C16.0195 20.0003 20.4995 15.5203 20.4995 10.0003C20.4995 4.48034 16.0195 0.000343323 10.4995 0.000343323ZM15.1395 6.80034C14.9895 8.38034 14.3395 12.2203 14.0095 13.9903C13.8695 14.7403 13.5895 14.9903 13.3295 15.0203C12.7495 15.0703 12.3095 14.6403 11.7495 14.2703C10.8695 13.6903 10.3695 13.3303 9.51951 12.7703C8.52951 12.1203 9.16951 11.7603 9.73951 11.1803C9.88951 11.0303 12.4495 8.70034 12.4995 8.49034C12.5065 8.45854 12.5055 8.42552 12.4968 8.39415C12.4881 8.36278 12.4719 8.33401 12.4495 8.31034C12.3895 8.26034 12.3095 8.28034 12.2395 8.29034C12.1495 8.31034 10.7495 9.24034 8.01951 11.0803C7.61951 11.3503 7.25951 11.4903 6.93951 11.4803C6.57951 11.4703 5.89951 11.2803 5.38951 11.1103C4.75951 10.9103 4.26951 10.8003 4.30951 10.4503C4.32951 10.2703 4.57951 10.0903 5.04951 9.90034C7.96951 8.63034 9.90951 7.79034 10.8795 7.39034C13.6595 6.23034 14.2295 6.03034 14.6095 6.03034C14.6895 6.03034 14.8795 6.05034 14.9995 6.15034C15.0995 6.23034 15.1295 6.34034 15.1395 6.42034C15.1295 6.48034 15.1495 6.66034 15.1395 6.80034Z" fill="white"/>
</svg>
