<svg width="204" height="35" viewBox="0 0 204 35" fill="none" xmlns="http://www.w3.org/2000/svg">
<path d="M21.0489 5.42705C21.3483 4.50574 22.6517 4.50574 22.9511 5.42705L25.1432 12.1738C25.2771 12.5858 25.661 12.8647 26.0943 12.8647H33.1882C34.1569 12.8647 34.5597 14.1044 33.7759 14.6738L28.0369 18.8435C27.6864 19.0981 27.5397 19.5495 27.6736 19.9615L29.8657 26.7082C30.1651 27.6295 29.1106 28.3956 28.3269 27.8262L22.5878 23.6565C22.2373 23.4019 21.7627 23.4019 21.4122 23.6565L15.6731 27.8262C14.8894 28.3956 13.8349 27.6295 14.1343 26.7082L16.3264 19.9615C16.4603 19.5495 16.3136 19.0981 15.9631 18.8435L10.2241 14.6738C9.44034 14.1044 9.84311 12.8647 10.8118 12.8647H17.9057C18.339 12.8647 18.7229 12.5858 18.8568 12.1738L21.0489 5.42705Z" fill="#FFC531"/>
<path d="M61.0489 5.42705C61.3483 4.50574 62.6517 4.50574 62.9511 5.42705L65.1432 12.1738C65.2771 12.5858 65.661 12.8647 66.0943 12.8647H73.1882C74.1569 12.8647 74.5597 14.1044 73.7759 14.6738L68.0369 18.8435C67.6864 19.0981 67.5397 19.5495 67.6736 19.9615L69.8657 26.7082C70.1651 27.6295 69.1106 28.3956 68.3269 27.8262L62.5878 23.6565C62.2373 23.4019 61.7627 23.4019 61.4122 23.6565L55.6731 27.8262C54.8894 28.3956 53.8349 27.6295 54.1343 26.7082L56.3264 19.9615C56.4603 19.5495 56.3136 19.0981 55.9631 18.8435L50.2241 14.6738C49.4403 14.1044 49.8431 12.8647 50.8118 12.8647H57.9057C58.339 12.8647 58.7229 12.5858 58.8568 12.1738L61.0489 5.42705Z" fill="#FFC531"/>
<path d="M101.049 5.42705C101.348 4.50574 102.652 4.50574 102.951 5.42705L105.143 12.1738C105.277 12.5858 105.661 12.8647 106.094 12.8647H113.188C114.157 12.8647 114.56 14.1044 113.776 14.6738L108.037 18.8435C107.686 19.0981 107.54 19.5495 107.674 19.9615L109.866 26.7082C110.165 27.6295 109.111 28.3956 108.327 27.8262L102.588 23.6565C102.237 23.4019 101.763 23.4019 101.412 23.6565L95.6731 27.8262C94.8894 28.3956 93.8349 27.6295 94.1343 26.7082L96.3264 19.9615C96.4603 19.5495 96.3136 19.0981 95.9631 18.8435L90.2241 14.6738C89.4403 14.1044 89.8431 12.8647 90.8118 12.8647H97.9057C98.339 12.8647 98.7229 12.5858 98.8568 12.1738L101.049 5.42705Z" fill="#FFC531"/>
<path d="M141.049 5.42705C141.348 4.50574 142.652 4.50574 142.951 5.42705L145.143 12.1738C145.277 12.5858 145.661 12.8647 146.094 12.8647H153.188C154.157 12.8647 154.56 14.1044 153.776 14.6738L148.037 18.8435C147.686 19.0981 147.54 19.5495 147.674 19.9615L149.866 26.7082C150.165 27.6295 149.111 28.3956 148.327 27.8262L142.588 23.6565C142.237 23.4019 141.763 23.4019 141.412 23.6565L135.673 27.8262C134.889 28.3956 133.835 27.6295 134.134 26.7082L136.326 19.9615C136.46 19.5495 136.314 19.0981 135.963 18.8435L130.224 14.6738C129.44 14.1044 129.843 12.8647 130.812 12.8647H137.906C138.339 12.8647 138.723 12.5858 138.857 12.1738L141.049 5.42705Z" fill="#FFC531"/>
<path d="M181.049 5.42705C181.348 4.50574 182.652 4.50574 182.951 5.42705L185.143 12.1738C185.277 12.5858 185.661 12.8647 186.094 12.8647H193.188C194.157 12.8647 194.56 14.1044 193.776 14.6738L188.037 18.8435C187.686 19.0981 187.54 19.5495 187.674 19.9615L189.866 26.7082C190.165 27.6295 189.111 28.3956 188.327 27.8262L182.588 23.6565C182.237 23.4019 181.763 23.4019 181.412 23.6565L175.673 27.8262C174.889 28.3956 173.835 27.6295 174.134 26.7082L176.326 19.9615C176.46 19.5495 176.314 19.0981 175.963 18.8435L170.224 14.6738C169.44 14.1044 169.843 12.8647 170.812 12.8647H177.906C178.339 12.8647 178.723 12.5858 178.857 12.1738L181.049 5.42705Z" fill="#FFC531"/>
</svg>
